<svg xmlns="http://www.w3.org/2000/svg" xmlns:xlink="http://www.w3.org/1999/xlink" width="1500" zoomAndPan="magnify" viewBox="0 0 1125 1124.99995" height="1500" preserveAspectRatio="xMidYMid meet" version="1.0"><defs><g/><clipPath id="id1"><path d="M 261 276 L 864 276 L 864 850.550781 L 261 850.550781 Z M 261 276 " clip-rule="nonzero"/></clipPath><clipPath id="id2"><path d="M 833 469.109375 L 947 469.109375 L 947 583 L 833 583 Z M 833 469.109375 " clip-rule="nonzero"/></clipPath></defs><rect x="-112.5" width="1350" fill="#ffffff" y="-112.499995" height="1349.99994" fill-opacity="1"/><rect x="-112.5" width="1350" fill="#ffffff" y="-112.499995" height="1349.99994" fill-opacity="1"/><rect x="-112.5" width="1350" fill="#ffffff" y="-112.499995" height="1349.99994" fill-opacity="1"/><rect x="-112.5" width="1350" fill="#ffffff" y="-112.499995" height="1349.99994" fill-opacity="1"/><g clip-path="url(#id1)"><path fill="#478ffa" d="M 859.117188 291.980469 C 857.296875 289.28125 854.046875 291.542969 854.4375 293.890625 C 855.644531 301.097656 853.160156 304.867188 846.457031 309.113281 C 831.703125 318.460938 802.558594 321.683594 789.535156 325.605469 C 782.695312 327.664062 775.992188 331.441406 769.566406 334.167969 C 759.460938 338.441406 748.308594 338.628906 743.144531 337.707031 C 740.601562 337.25 738.417969 335.714844 738.925781 333.179688 C 740.1875 326.910156 755.476562 321.929688 767.03125 318.5625 C 780.398438 314.671875 787.203125 309.171875 793.050781 300.476562 C 797.46875 293.914062 798.167969 285.648438 793.285156 277.398438 C 791.625 274.597656 788.25 276.671875 788.503906 279.03125 C 789.292969 286.300781 786.59375 289.917969 779.652344 293.773438 C 764.386719 302.253906 735.105469 303.789062 721.878906 306.953125 C 708.984375 310.035156 694.125 314.71875 690.769531 327.519531 C 689.351562 332.925781 690.367188 338.390625 692.84375 343.484375 C 693.84375 345.539062 692.476562 347.988281 690.207031 348.246094 C 677.730469 349.65625 663.253906 345.4375 660.847656 349.007812 C 658.113281 353.074219 673.394531 373.222656 687.21875 379.914062 C 701.195312 386.675781 711.570312 386.078125 719.039062 384.363281 C 711.21875 387.007812 699.492188 389.660156 682.285156 382.25 C 678.050781 380.425781 673.640625 377.445312 669.566406 374.023438 C 666.011719 371.03125 660.898438 370.789062 657.121094 373.507812 C 650.902344 377.984375 645.324219 381.925781 640.816406 384.769531 C 622.09375 396.578125 582.273438 401.148438 556.304688 416.542969 C 524.386719 435.464844 512.617188 467.636719 480.867188 485.554688 C 453.5625 500.957031 412.011719 507.269531 371.589844 528.976562 C 360.292969 535.046875 350.527344 541.480469 341.714844 547.777344 C 324.429688 560.136719 280.660156 562.34375 291.800781 540.433594 C 301.726562 520.910156 341.207031 512.28125 357.757812 507.335938 C 375.828125 501.933594 400.023438 495.425781 406.53125 477 C 413.097656 458.398438 404.011719 430.878906 392.152344 416.367188 C 382.597656 404.679688 373.316406 396.722656 362.242188 394.136719 C 353.945312 392.203125 333.339844 394.238281 333.457031 398.074219 C 333.578125 402.011719 357.027344 399.472656 355.140625 415.28125 C 353.910156 425.566406 356.257812 439.464844 370.945312 440.753906 C 385.265625 442.007812 392.695312 439.0625 399.378906 456.03125 C 403.121094 465.523438 401.527344 477.183594 393.90625 484.734375 C 382.710938 495.835938 350.039062 502.671875 328.996094 507.863281 C 310.300781 512.472656 279.097656 524.007812 274.605469 546.855469 C 270.882812 565.78125 294.78125 572.167969 307.9375 578.886719 C 310.847656 580.367188 311.140625 582.871094 309.523438 586.847656 C 300.671875 608.574219 297.089844 627.738281 302.003906 662.101562 C 304.679688 680.878906 304.820312 690.472656 302.003906 709.671875 C 298.898438 730.804688 283.433594 739.949219 279.332031 754.660156 C 277.511719 761.179688 277.382812 768.164062 276.015625 779.367188 C 275.3125 785.09375 273.972656 789.421875 270.890625 794.488281 C 268.1875 798.929688 264.582031 801.183594 264.5 804.625 C 264.425781 807.902344 266.042969 811.417969 266.484375 814.648438 C 266.847656 817.289062 266.730469 820.355469 265.050781 824.59375 C 262.933594 829.929688 260.5 840.148438 262.058594 844.472656 C 264.171875 850.347656 278.523438 850.191406 285.082031 850.113281 C 300.109375 849.925781 307.949219 847.296875 305.527344 838.828125 C 301.769531 825.664062 290.910156 819.992188 286.957031 811.707031 C 282.808594 803.035156 291.4375 796.640625 306.054688 774.207031 C 316.3125 758.472656 347.480469 749.933594 374.992188 727.371094 C 402.632812 704.714844 414.726562 684.601562 449.085938 675.378906 C 457.5 673.121094 468.445312 673.199219 480.730469 674.585938 C 435.804688 673.253906 414.042969 699.523438 406.949219 707.574219 C 402.121094 713.058594 399.96875 720.363281 402.679688 727.152344 C 405.460938 734.125 409.253906 739.5 415.054688 747.113281 C 425.183594 760.40625 437.90625 770.265625 448.621094 779.539062 C 457.644531 787.339844 462.128906 793.691406 464.441406 798.675781 C 467.253906 804.746094 465.378906 806.796875 467.082031 810.640625 C 469.34375 815.753906 472.992188 813.136719 474.441406 818.667969 C 475.882812 824.152344 470.035156 831.667969 472.824219 840.480469 C 474.164062 844.730469 487.296875 845.957031 493.769531 845.875 C 508.601562 845.691406 515.910156 843.730469 512.253906 835.84375 C 503.445312 816.816406 493.941406 812.800781 489.058594 801.5 C 483.136719 787.796875 478.09375 775.292969 475.277344 766.578125 C 470.542969 751.921875 478.800781 726.726562 488.289062 714.070312 C 498.023438 701.082031 519.640625 682.179688 542.808594 686.320312 C 552.972656 688.132812 565.855469 692.804688 589.121094 694.105469 C 594.832031 694.425781 592.71875 689.339844 589.90625 684.355469 C 573.644531 655.566406 572.566406 615.644531 586.960938 593.722656 C 574.207031 622.515625 583.992188 662.832031 606.140625 688.097656 C 614.644531 697.792969 652.476562 726.386719 670.839844 749.226562 C 676.019531 755.667969 677.667969 763.589844 681.53125 768.746094 C 684.738281 773.019531 690.925781 776.652344 695.164062 780.238281 C 702.117188 786.125 705.585938 792.277344 707.558594 797.917969 C 709.945312 804.742188 708.382812 805.121094 710.21875 809.273438 C 712.660156 814.792969 716.640625 813.515625 718.007812 818.472656 C 719.632812 824.378906 714.234375 834.761719 716.828125 845.148438 C 717.992188 849.8125 733.1875 850.660156 740.1875 850.574219 C 756.203125 850.375 765.667969 847.945312 762.125 839.246094 C 753.867188 818.949219 742.855469 811.324219 736.171875 799.832031 C 730.277344 789.679688 725.878906 783.761719 722.835938 774.351562 C 721.195312 769.273438 723.242188 759.609375 721.175781 751.960938 C 717.710938 739.109375 711.625 734.429688 709.457031 724.367188 C 704.605469 701.855469 718.242188 656.679688 714.136719 616.8125 C 719.695312 630.226562 719.550781 646.429688 717.320312 662.96875 C 716.824219 666.667969 720.429688 667.710938 724.035156 666.738281 C 735.066406 663.757812 760.167969 654.40625 786.84375 640.96875 C 796.71875 635.996094 797.152344 648.980469 796.285156 654.054688 C 795.714844 657.425781 794.632812 664.464844 792.859375 668.761719 C 791.191406 672.796875 788 675.289062 787.464844 677.425781 C 786.320312 682 788.921875 684.460938 786.160156 689.683594 C 784.222656 693.335938 780.453125 695.652344 775.972656 694.640625 C 768.988281 693.066406 760.144531 694.898438 758.355469 706.480469 C 757.34375 713 758.285156 726.335938 762.351562 740.566406 C 764.171875 746.957031 772.214844 749.734375 775.742188 746.210938 C 783.261719 741.039062 789.019531 726.898438 791.359375 721.757812 C 795.386719 712.925781 797.480469 705.96875 805.03125 690.160156 C 808.039062 683.867188 811.164062 675.023438 813.753906 666.816406 C 818.429688 652 820.394531 646.292969 822.472656 637.816406 C 823.789062 632.46875 825.007812 624.671875 827.597656 620.839844 C 830.730469 616.207031 830.175781 606.5625 826.246094 601.589844 C 823.039062 597.519531 817.578125 594.875 810.308594 593.707031 C 802.375 592.4375 795.03125 584.445312 787.679688 580.136719 C 784.429688 578.226562 780.261719 580.390625 779.984375 584.152344 C 778.769531 600.871094 763.246094 626.042969 749.101562 641.808594 C 769.488281 615.710938 775.558594 586.390625 772.867188 550.144531 C 772.152344 540.457031 768.640625 526.179688 762.980469 512.558594 C 758.320312 501.320312 750.753906 491.597656 741.433594 483.789062 C 727.039062 471.722656 716.699219 446.578125 721.066406 428.855469 C 722.792969 455.324219 730.300781 466.414062 738.554688 474.078125 C 752.878906 487.390625 765.550781 487.714844 774.304688 495.507812 C 780.921875 501.398438 778.578125 512.707031 785.480469 514.433594 C 792.546875 516.199219 795.523438 511.148438 802.128906 511.277344 C 806.980469 511.367188 833.144531 507.863281 840.089844 493.828125 C 844.566406 484.777344 842.796875 470.96875 833.464844 465.742188 C 829.585938 463.570312 829.203125 449.492188 826.847656 440.457031 C 823.835938 428.902344 818.359375 414.546875 822.375 405.277344 C 825.726562 397.535156 830.222656 376.222656 821.304688 359.097656 C 820.125 356.832031 818.753906 354.796875 817.234375 352.980469 C 814.714844 349.976562 815.234375 345.421875 818.433594 343.152344 C 822.832031 340.035156 829.035156 337.394531 835.28125 334.589844 C 847.988281 328.890625 854.878906 324.046875 860.214844 315.035156 C 864.246094 308.226562 864.46875 299.933594 859.117188 291.980469 " fill-opacity="1" fill-rule="nonzero"/></g><path fill="#34e3a9" d="M 845.5625 556.683594 C 805.097656 592.375 760.894531 631.796875 720.421875 667.484375 C 720.441406 667.519531 720.460938 667.550781 720.480469 667.585938 C 720.894531 668.152344 721.285156 668.769531 721.632812 669.464844 C 722.03125 670.140625 722.335938 670.824219 722.589844 671.5 C 725.589844 678.140625 727.347656 685.292969 727.859375 692.523438 C 771.761719 653.800781 819.394531 611.359375 863.289062 572.644531 C 856.378906 568.554688 850.289062 563.109375 845.5625 556.683594 Z M 845.5625 556.683594 " fill-opacity="1" fill-rule="nonzero"/><path fill="#34e3a9" d="M 514.644531 556.894531 C 514.019531 565.710938 511.296875 574.191406 506.929688 581.6875 C 543.71875 614.125 584.234375 650.289062 621.027344 682.730469 C 622.933594 674.675781 626.523438 667.0625 631.75 660.59375 C 593.953125 627.273438 552.433594 590.222656 514.644531 556.894531 Z M 514.644531 556.894531 " fill-opacity="1" fill-rule="nonzero"/><path fill="#34e3a9" d="M 269.863281 684.582031 C 260.617188 677.570312 249.039062 673.25 235.875 672.539062 C 203.871094 670.8125 180.746094 699.78125 179.15625 729.265625 C 177.433594 761.289062 206.394531 784.414062 235.875 786 C 266.597656 787.660156 289.078125 761.023438 292.242188 732.808594 C 292.503906 731.726562 292.664062 730.585938 292.59375 729.269531 C 292.664062 727.988281 292.507812 726.855469 292.257812 725.792969 C 291.371094 717.273438 289 709.441406 285.292969 702.582031 C 328.363281 664.609375 373.289062 624.769531 416.355469 586.796875 C 411.3125 580.234375 407.714844 572.578125 406.144531 564.207031 C 361.335938 603.707031 314.667969 645.078125 269.863281 684.582031 Z M 202.898438 729.265625 C 200.609375 686.726562 266.570312 686.945312 268.851562 729.265625 C 266.5625 771.78125 205.1875 771.78125 202.898438 729.265625 Z M 202.898438 729.265625 " fill-opacity="1" fill-rule="nonzero"/><path fill="#34e3a9" d="M 516.230469 548.046875 C 516.175781 547.605469 516.101562 547.167969 516.015625 546.734375 C 515.984375 546.136719 515.929688 545.523438 515.808594 544.890625 C 510.4375 516.34375 484.011719 496.234375 455.070312 498.664062 C 425.636719 501.136719 404.210938 526.210938 403.40625 555.113281 C 403.300781 558.871094 403.617188 562.527344 404.28125 566.066406 C 405.851562 574.433594 409.449219 582.089844 414.492188 588.652344 C 425.660156 603.183594 443.890625 612.328125 462.839844 611.761719 C 482.585938 611.175781 499.441406 599.625 508.796875 583.554688 C 513.160156 576.054688 515.886719 567.578125 516.507812 558.757812 C 516.757812 555.226562 516.6875 551.644531 516.230469 548.046875 Z M 462.839844 588.015625 C 443.191406 589.777344 428.101562 573.945312 427.148438 555.113281 C 426.289062 538.160156 440.269531 525.394531 455.761719 522.335938 C 473.921875 518.75 488.957031 533.546875 492.644531 549.933594 C 494.167969 568.746094 482.820312 586.21875 462.839844 588.015625 Z M 462.839844 588.015625 " fill-opacity="1" fill-rule="nonzero"/><path fill="#34e3a9" d="M 723.496094 667.59375 C 723.144531 666.898438 722.757812 666.285156 722.347656 665.71875 C 722.324219 665.683594 722.308594 665.652344 722.285156 665.617188 C 705.8125 639.585938 673.097656 631.21875 645.714844 645.683594 C 639.382812 649.03125 634.105469 653.503906 629.882812 658.726562 C 624.660156 665.195312 621.070312 672.808594 619.164062 680.863281 C 615.746094 695.277344 617.695312 711.105469 625.257812 724.28125 C 640.242188 750.410156 673.15625 757.449219 699.367188 745.589844 C 721.152344 735.734375 731.324219 712.902344 729.730469 690.652344 C 729.21875 683.429688 727.460938 676.269531 724.460938 669.632812 C 724.199219 668.957031 723.894531 668.277344 723.496094 667.59375 Z M 689.554688 723.953125 C 675.460938 732.300781 656.421875 727.238281 647.050781 714.300781 C 636.175781 699.300781 640.304688 678.164062 655.304688 667.652344 C 671.746094 656.128906 693.386719 663.050781 702.996094 679.578125 C 711.21875 696.03125 705.089844 714.734375 689.554688 723.953125 Z M 689.554688 723.953125 " fill-opacity="1" fill-rule="nonzero"/><g clip-path="url(#id2)"><path fill="#34e3a9" d="M 946.796875 523.542969 C 945.960938 493.734375 920.816406 471.214844 892.113281 469.457031 C 891.488281 469.382812 890.839844 469.339844 890.152344 469.355469 C 889.46875 469.339844 888.824219 469.382812 888.207031 469.457031 C 858.382812 471.203125 835.992188 493.738281 833.492188 523.542969 C 832.398438 536.582031 836.453125 548.707031 843.699219 558.546875 C 848.417969 564.972656 854.511719 570.417969 861.429688 574.507812 C 871.484375 580.457031 883.292969 583.539062 895.203125 582.539062 C 925.386719 580.003906 947.632812 553.371094 946.796875 523.542969 Z M 894.515625 558.867188 C 873.378906 563.042969 856.703125 542.953125 857.246094 523.542969 C 857.730469 506.179688 873.765625 493.5625 890.152344 493.105469 C 907.269531 493.582031 921.597656 506.195312 923.050781 523.542969 C 924.5625 541.523438 911.414062 555.53125 894.515625 558.867188 Z M 894.515625 558.867188 " fill-opacity="1" fill-rule="nonzero"/></g><g fill="#d9d9d9" fill-opacity="1"><g transform="translate(191.601571, 970.0186)"><g><path d="M 30.9375 0 L 8.71875 0 L 8.71875 -72 L 31.921875 -72 C 38.910156 -72 44.890625 -70.5625 49.859375 -67.6875 C 54.828125 -64.820312 58.632812 -60.710938 61.28125 -55.359375 C 63.925781 -50.003906 65.25 -43.597656 65.25 -36.140625 C 65.25 -28.640625 63.910156 -22.1875 61.234375 -16.78125 C 58.566406 -11.382812 54.675781 -7.238281 49.5625 -4.34375 C 44.457031 -1.445312 38.25 0 30.9375 0 Z M 17.4375 -7.734375 L 30.375 -7.734375 C 39.300781 -7.734375 45.9375 -10.269531 50.28125 -15.34375 C 54.632812 -20.414062 56.8125 -27.347656 56.8125 -36.140625 C 56.8125 -44.859375 54.675781 -51.722656 50.40625 -56.734375 C 46.144531 -61.753906 39.796875 -64.265625 31.359375 -64.265625 L 17.4375 -64.265625 Z M 17.4375 -7.734375 "/></g></g><g transform="translate(262.757815, 970.0186)"><g><path d="M 8.71875 0 L 8.71875 -72 L 52.171875 -72 L 52.171875 -64.265625 L 17.4375 -64.265625 L 17.4375 -39.9375 L 49.921875 -39.9375 L 49.921875 -32.203125 L 17.4375 -32.203125 L 17.4375 -7.734375 L 52.734375 -7.734375 L 52.734375 0 Z M 8.71875 0 "/></g></g><g transform="translate(321.960933, 970.0186)"><g><path d="M 66.65625 -49.5 L 57.9375 -49.5 C 57.238281 -52.832031 55.890625 -55.632812 53.890625 -57.90625 C 51.898438 -60.175781 49.5 -61.894531 46.6875 -63.0625 C 43.875 -64.238281 40.875 -64.828125 37.6875 -64.828125 C 33.332031 -64.828125 29.390625 -63.722656 25.859375 -61.515625 C 22.328125 -59.316406 19.523438 -56.070312 17.453125 -51.78125 C 15.378906 -47.5 14.34375 -42.238281 14.34375 -36 C 14.34375 -29.769531 15.378906 -24.507812 17.453125 -20.21875 C 19.523438 -15.925781 22.328125 -12.675781 25.859375 -10.46875 C 29.390625 -8.269531 33.332031 -7.171875 37.6875 -7.171875 C 40.875 -7.171875 43.875 -7.753906 46.6875 -8.921875 C 49.5 -10.097656 51.898438 -11.820312 53.890625 -14.09375 C 55.890625 -16.375 57.238281 -19.175781 57.9375 -22.5 L 66.65625 -22.5 C 65.769531 -17.582031 63.953125 -13.367188 61.203125 -9.859375 C 58.460938 -6.359375 55.066406 -3.675781 51.015625 -1.8125 C 46.960938 0.0507812 42.519531 0.984375 37.6875 0.984375 C 31.550781 0.984375 26.09375 -0.515625 21.3125 -3.515625 C 16.53125 -6.515625 12.765625 -10.78125 10.015625 -16.3125 C 7.273438 -21.84375 5.90625 -28.40625 5.90625 -36 C 5.90625 -43.59375 7.273438 -50.15625 10.015625 -55.6875 C 12.765625 -61.21875 16.53125 -65.484375 21.3125 -68.484375 C 26.09375 -71.484375 31.550781 -72.984375 37.6875 -72.984375 C 42.519531 -72.984375 46.960938 -72.050781 51.015625 -70.1875 C 55.066406 -68.320312 58.460938 -65.640625 61.203125 -62.140625 C 63.953125 -58.640625 65.769531 -54.425781 66.65625 -49.5 Z M 66.65625 -49.5 "/></g></g><g transform="translate(393.960926, 970.0186)"><g><path d="M 8.71875 0 L 8.71875 -72 L 17.4375 -72 L 17.4375 -7.734375 L 50.90625 -7.734375 L 50.90625 0 Z M 8.71875 0 "/></g></g><g transform="translate(449.648421, 970.0186)"><g><path d="M 11.671875 0 L 2.53125 0 L 28.96875 -72 L 37.96875 -72 L 64.40625 0 L 55.265625 0 L 48.03125 -20.390625 L 18.921875 -20.390625 Z M 21.65625 -28.125 L 45.28125 -28.125 L 33.75 -60.609375 L 33.1875 -60.609375 Z M 21.65625 -28.125 "/></g></g><g transform="translate(516.585914, 970.0186)"><g><path d="M 8.71875 0 L 8.71875 -72 L 33.046875 -72 C 38.671875 -72 43.285156 -71.039062 46.890625 -69.125 C 50.503906 -67.21875 53.175781 -64.597656 54.90625 -61.265625 C 56.644531 -57.941406 57.515625 -54.160156 57.515625 -49.921875 C 57.515625 -45.140625 56.414062 -40.972656 54.21875 -37.421875 C 52.03125 -33.867188 48.640625 -31.3125 44.046875 -29.75 L 60.328125 0 L 50.203125 0 L 35.015625 -28.15625 C 34.429688 -28.132812 33.820312 -28.125 33.1875 -28.125 L 17.4375 -28.125 L 17.4375 0 Z M 17.4375 -36 L 32.90625 -36 C 38.675781 -36 42.789062 -37.238281 45.25 -39.71875 C 47.707031 -42.207031 48.9375 -45.609375 48.9375 -49.921875 C 48.9375 -54.253906 47.695312 -57.726562 45.21875 -60.34375 C 42.75 -62.957031 38.597656 -64.265625 32.765625 -64.265625 L 17.4375 -64.265625 Z M 17.4375 -36 "/></g></g><g transform="translate(579.867157, 970.0186)"><g><path d="M 17.4375 -72 L 17.4375 0 L 8.71875 0 L 8.71875 -72 Z M 17.4375 -72 "/></g></g><g transform="translate(606.023406, 970.0186)"><g><path d="M 65.8125 -72 L 65.8125 0 L 57.375 0 L 18.140625 -56.53125 L 17.4375 -56.53125 L 17.4375 0 L 8.71875 0 L 8.71875 -72 L 17.15625 -72 L 56.53125 -15.328125 L 57.234375 -15.328125 L 57.234375 -72 Z M 65.8125 -72 "/></g></g><g transform="translate(680.554647, 970.0186)"><g><path d="M 11.671875 -72 L 33.046875 -11.390625 L 33.890625 -11.390625 L 55.265625 -72 L 64.40625 -72 L 37.96875 0 L 28.96875 0 L 2.53125 -72 Z M 11.671875 -72 "/></g></g><g transform="translate(747.492139, 970.0186)"><g><path d="M 8.71875 0 L 8.71875 -72 L 52.171875 -72 L 52.171875 -64.265625 L 17.4375 -64.265625 L 17.4375 -39.9375 L 49.921875 -39.9375 L 49.921875 -32.203125 L 17.4375 -32.203125 L 17.4375 -7.734375 L 52.734375 -7.734375 L 52.734375 0 Z M 8.71875 0 "/></g></g><g transform="translate(806.695258, 970.0186)"><g><path d="M 48.09375 -54 C 47.675781 -57.5625 45.96875 -60.328125 42.96875 -62.296875 C 39.96875 -64.265625 36.285156 -65.25 31.921875 -65.25 C 27.140625 -65.25 23.296875 -64.117188 20.390625 -61.859375 C 17.484375 -59.597656 16.03125 -56.742188 16.03125 -53.296875 C 16.03125 -50.722656 16.820312 -48.644531 18.40625 -47.0625 C 19.988281 -45.476562 21.863281 -44.242188 24.03125 -43.359375 C 26.195312 -42.484375 28.171875 -41.8125 29.953125 -41.34375 L 37.265625 -39.375 C 39.140625 -38.882812 41.226562 -38.203125 43.53125 -37.328125 C 45.84375 -36.460938 48.0625 -35.285156 50.1875 -33.796875 C 52.3125 -32.316406 54.0625 -30.414062 55.4375 -28.09375 C 56.820312 -25.769531 57.515625 -22.921875 57.515625 -19.546875 C 57.515625 -15.660156 56.5 -12.144531 54.46875 -9 C 52.445312 -5.863281 49.492188 -3.367188 45.609375 -1.515625 C 41.734375 0.335938 37.03125 1.265625 31.5 1.265625 C 23.769531 1.265625 17.628906 -0.5625 13.078125 -4.21875 C 8.535156 -7.875 6.050781 -12.65625 5.625 -18.5625 L 14.625 -18.5625 C 14.863281 -15.84375 15.785156 -13.597656 17.390625 -11.828125 C 18.992188 -10.054688 21.03125 -8.742188 23.5 -7.890625 C 25.976562 -7.035156 28.644531 -6.609375 31.5 -6.609375 C 34.832031 -6.609375 37.820312 -7.148438 40.46875 -8.234375 C 43.113281 -9.328125 45.207031 -10.851562 46.75 -12.8125 C 48.300781 -14.769531 49.078125 -17.0625 49.078125 -19.6875 C 49.078125 -22.082031 48.410156 -24.03125 47.078125 -25.53125 C 45.742188 -27.03125 43.984375 -28.25 41.796875 -29.1875 C 39.617188 -30.125 37.265625 -30.941406 34.734375 -31.640625 L 25.875 -34.171875 C 20.25 -35.785156 15.796875 -38.09375 12.515625 -41.09375 C 9.234375 -44.09375 7.59375 -48.019531 7.59375 -52.875 C 7.59375 -56.90625 8.6875 -60.425781 10.875 -63.4375 C 13.070312 -66.445312 16.023438 -68.789062 19.734375 -70.46875 C 23.453125 -72.144531 27.609375 -72.984375 32.203125 -72.984375 C 36.847656 -72.984375 40.972656 -72.15625 44.578125 -70.5 C 48.191406 -68.851562 51.054688 -66.597656 53.171875 -63.734375 C 55.296875 -60.878906 56.414062 -57.632812 56.53125 -54 Z M 48.09375 -54 "/></g></g><g transform="translate(869.83588, 970.0186)"><g><path d="M 4.78125 -64.265625 L 4.78125 -72 L 58.78125 -72 L 58.78125 -64.265625 L 36.140625 -64.265625 L 36.140625 0 L 27.421875 0 L 27.421875 -64.265625 Z M 4.78125 -64.265625 "/></g></g></g></svg>